<mxfile host="app.diagrams.net" modified="2023-05-09T15:24:34.818Z" agent="Mozilla/5.0 (X11; Linux x86_64; rv:109.0) Gecko/20100101 Firefox/112.0" version="21.2.9" etag="ep5l7V7hjsr_X1JWMbFf" type="github">
  <diagram name="Page-1" id="TRP2K677sPI2TilkwHnE">
    <mxGraphModel>
      <root>
        <mxCell id="0" />
        <mxCell id="1" parent="0" />
      </root>
    </mxGraphModel>
  </diagram>
</mxfile>
